<svg width="1440" height="600" viewBox="0 0 1440 600" fill="none" xmlns="http://www.w3.org/2000/svg">
<g clip-path="url(#clip0_1_6)">
<path d="M1440 0H0V600H1440V0Z" fill="#1E1E1E"/>
<path d="M0 609.704C104.723 600.352 191.412 526.307 273.621 456.174C349.032 391.84 398.748 306.729 454.181 222.233C522.786 117.658 627.646 29.2307 637.297 -98.174C647.512 -233.02 597.931 -376.896 506.645 -470.369C417.485 -561.664 277.402 -543.632 160.656 -586.227C37.077 -631.314 -77.041 -776.443 -199.511 -728.007C-323.931 -678.799 -312.072 -477.599 -394.812 -366.543C-472.511 -262.255 -630.419 -230.554 -665.521 -102.523C-700.901 26.5233 -639.234 166.292 -572.047 279.905C-509.82 385.13 -406.974 448.781 -304.591 507.807C-208.99 562.923 -108.188 619.365 0 609.704Z" fill="#161313"/>
<path d="M1440 1148.09C1532.89 1130.68 1587.29 1031.99 1662.9 971.621C1732.11 916.37 1828.19 891.576 1865.64 808.27C1903.25 724.619 1866.4 627.965 1859 535.454C1851.09 436.533 1887.88 314.944 1820.73 246.535C1752.44 176.976 1637.59 236.055 1545.27 215.871C1463.8 198.06 1392.12 109.112 1312.69 135.461C1233.17 161.84 1221.2 279.086 1162.88 342.724C1098.87 412.57 973.229 429.344 955.377 525.345C937.735 620.217 1048.48 685.319 1082.51 774.92C1118.74 870.293 1091.8 993.904 1160.63 1065.76C1231.24 1139.46 1342.9 1166.29 1440 1148.09Z" fill="#DADADA"/>
</g>
<defs>
<clipPath id="clip0_1_6">
<rect width="1440" height="600" fill="white"/>
</clipPath>
</defs>
</svg>
